<svg xmlns="http://www.w3.org/2000/svg" height="8" viewBox="0 0 846.7 846.7" width="8" style="image-rendering:optimizeQuality;shape-rendering:geometricPrecision;text-rendering:geometricPrecision"><defs><style type="text/css">  
   </style></defs><path class="fil0" d="M81 10.7l616.3 0c11.4 0 20.7 9.2 20.7 20.6l0 54.7 47.8 0c11.4 0 20.7 9.3 20.7 20.7l0 708.7c0 11.4-9.2 20.6-20.6 20.6l-616.3 0c-11.4 0-20.6-9.2-20.6-20.6l0-54.7-47.8 0c-11.4 0-20.6-9.2-20.6-20.6l0-708.7c0-11.4 9.3-20.6 20.7-20.6zm88.2 439.1c-27.1 0-27.1-41.3 0-41.3l440 0c27.2 0 27.2 41.3 0 41.3l-440 0zm0 198.6c-27.1 0-27.1-41.3 0-41.3l440 0c27.2 0 27.2 41.3 0 41.3l-440 0zm0-132.4c-27.1 0-27.1-41.3 0-41.3l440 0c27.2 0 27.2 41.3 0 41.3l-440 0zm0 66.2c-27.1 0-27.1-41.3 0-41.3l440 0c27.2 0 27.2 41.3 0 41.3l-440 0zm220-417.9c35.6 0 64.4 28.8 64.4 64.4 0 13.3-4 25.7-11 36 10.4 8 18.9 18.2 24.9 29.9 16-18.3 25.7-42.2 25.7-68.4 0-57.4-46.6-104-104-104-57.4 0-104 46.6-104 104 0 26.2 9.7 50.2 25.7 68.4 6-11.7 14.5-21.9 24.9-29.9-6.9-10.3-11-22.6-11-35.9 0-35.6 28.8-64.4 64.4-64.4zm16.9 126.6c-5.4 1.5-11 2.2-16.9 2.2-5.8 0-11.5-0.8-16.9-2.2-13.1 5.1-23.4 15.9-27.7 29.3 13.5 6.4 28.6 10 44.5 10 15.9 0 31-3.6 44.5-10-4.3-13.4-14.6-24.2-27.7-29.3zm-16.9-85.3c-12.8 0-23.1 10.4-23.1 23.1 0 12.8 10.4 23.1 23.1 23.1 12.8 0 23.1-10.3 23.1-23.1 0-12.8-10.3-23.1-23.1-23.1zm0-124.8c80.3 0 145.3 65.1 145.3 145.3 0 80.3-65.1 145.3-145.3 145.3-80.2 0-145.3-65.1-145.3-145.3 0-80.2 65.1-145.3 145.3-145.3zm328.8 46.5l0 612.8c0 11.4-9.2 20.7-20.6 20.7l-527.2 0 0 34 575 0 0-667.4-27.2 0zm-41.3-75.3l-575 0 0 667.4 575 0 0-612.8 0-54.7z"/></svg>