<svg xmlns="http://www.w3.org/2000/svg" height="100" viewBox="0 0 512 512" width="100" stroke-linejoin="round"><path d="M256 0c141.3 0 256 114.7 256 256 0 141.3-114.7 256-256 256 -141.3 0-256-114.7-256-256 0-141.3 114.7-256 256-256Zm-80 399.9l0-199.9 -66.5 0 0 199.9 66.5 0Zm239.6 0l0-114.6c0-61.4-32.8-90-76.5-90 -35.3 0-51 19.4-59.9 33l0-28.3 -66.4 0c0.9 18.8 0 199.9 0 199.9l66.4 0 0-111.6c0-6 0.4-11.9 2.2-16.2 4.8-11.9 15.7-24.3 34.1-24.3 24 0 33.7 18.3 33.7 45.2l0 107 66.5 0Zm-272.4-296.3c-22.7 0-37.6 15-37.6 34.5 0 19.2 14.4 34.5 36.7 34.5l0.4 0c23.2 0 37.6-15.4 37.6-34.5 -0.4-19.6-14.4-34.5-37.1-34.5Z"/></svg>
